<?xml version="1.0" encoding="UTF-8"?>
<svg id="Layer_1" data-name="Layer 1" xmlns="http://www.w3.org/2000/svg" viewBox="0 0 512 512">
  <defs>
    <style>
      .cls-1 {
        fill: none;
        stroke: #fff;
        stroke-width: 34px;
      }

      .cls-1, .cls-2 {
        stroke-miterlimit: 10;
      }

      .cls-3, .cls-2 {
        fill: #231f20;
      }

      .cls-4 {
        fill: #aeaeae;
      }

      .cls-2 {
        stroke: #231f20;
      }
    </style>
  </defs>
  <path class="cls-2" d="M138.48,49.21h235.04c49.27,0,89.28,40,89.28,89.28v235.04c0,49.27-40,89.28-89.28,89.28h-241.72c-45.59,0-82.6-37.01-82.6-82.6v-241.72c0-49.27,40-89.28,89.28-89.28Z"/>
  <path class="cls-3" d="M298.15,156.21h-84.29c-9.57,0-18.42,5.11-23.2,13.4l-42.15,73c-4.79,8.29-4.79,18.5,0,26.79l42.15,73c4.79,8.29,13.63,13.4,23.2,13.4h84.29c9.57,0,18.42-5.11,23.2-13.4l42.15-73c4.79-8.29,4.79-18.5,0-26.79l-42.15-73c-4.79-8.29-13.63-13.4-23.2-13.4Z"/>
  <line class="cls-1" x1="144.92" y1="255.89" x2="367.08" y2="255.89"/>
  <line class="cls-1" x1="311.95" y1="160" x2="200.14" y2="352"/>
  <line class="cls-1" x1="311.95" y1="352" x2="200.14" y2="160"/>
  <circle class="cls-3" cx="256" cy="256" r="33.92"/>
  <circle class="cls-4" cx="202.22" cy="163.57" r="27.65"/>
  <circle class="cls-4" cx="309.87" cy="163.57" r="27.65"/>
  <circle class="cls-4" cx="146.92" cy="256" r="27.65"/>
  <circle class="cls-4" cx="365.18" cy="256" r="27.65"/>
  <circle class="cls-4" cx="200.14" cy="352" r="27.65"/>
  <circle class="cls-4" cx="311.95" cy="352" r="27.65"/>
</svg>